<svg width="30" height="30" viewBox="0 0 30 30" fill="none" xmlns="http://www.w3.org/2000/svg">
<path d="M16.5178 15L24.2082 5.83301C24.3371 5.68066 24.2288 5.44922 24.0295 5.44922H21.6916C21.5539 5.44922 21.4221 5.51074 21.3313 5.61621L14.9885 13.1777L8.64574 5.61621C8.55785 5.51074 8.42602 5.44922 8.28539 5.44922H5.9475C5.74828 5.44922 5.63988 5.68066 5.76879 5.83301L13.4592 15L5.76879 24.167C5.73991 24.2009 5.72139 24.2425 5.71541 24.2867C5.70944 24.3308 5.71626 24.3758 5.73508 24.4162C5.75389 24.4566 5.78391 24.4908 5.82156 24.5146C5.85922 24.5385 5.90293 24.551 5.9475 24.5508H8.28539C8.42309 24.5508 8.55492 24.4893 8.64574 24.3838L14.9885 16.8223L21.3313 24.3838C21.4192 24.4893 21.551 24.5508 21.6916 24.5508H24.0295C24.2288 24.5508 24.3371 24.3193 24.2082 24.167L16.5178 15Z" fill="#141414"/>
</svg>
