<svg width="21" height="10" viewBox="0 0 21 10" fill="none" xmlns="http://www.w3.org/2000/svg">
<path d="M16.4645 1.5625L12.5833 4.66667H7.37492V3.625H11.6093C11.7035 3.62495 11.7959 3.59935 11.8767 3.55092C11.9576 3.5025 12.0237 3.43306 12.0682 3.35C12.1127 3.26694 12.1338 3.17338 12.1293 3.07928C12.1248 2.98518 12.0948 2.89406 12.0426 2.81562L11.1176 1.42812C10.9279 1.14251 10.6704 0.90829 10.3681 0.746348C10.0659 0.584406 9.72824 0.499775 9.38533 0.5H1.12492C0.848651 0.5 0.583699 0.609747 0.388349 0.805097C0.192999 1.00045 0.083252 1.2654 0.083252 1.54167V7.79167C0.083252 8.3442 0.302745 8.8741 0.693446 9.2648C1.08415 9.65551 1.61405 9.875 2.16659 9.875H12.2072C12.6526 9.8751 13.0929 9.77998 13.4986 9.59602C13.9043 9.41205 14.2659 9.14349 14.5593 8.80833L20.9166 1.54167L19.4041 1.0375C18.9092 0.872552 18.381 0.834181 17.8675 0.925888C17.354 1.01759 16.8717 1.23646 16.4645 1.5625Z" fill="white"/>
</svg>
