<svg width="11" height="9" viewBox="0 0 11 9" fill="none" xmlns="http://www.w3.org/2000/svg">
<path d="M10.3916 2.67917C10.3916 3.41875 10.1011 4.08853 9.63135 4.57291L5.1958 8.27556L0.760498 4.57187C0.290706 4.08854 0 3.41771 0 2.67813C0 1.93855 0.290706 1.26978 0.760498 0.784363C0.99828 0.536756 1.28339 0.339671 1.59912 0.204895C1.91485 0.0701195 2.25461 0.000436698 2.5979 0C2.5979 0 3.89372 -0.00313914 5.1958 1.33957C6.49788 -0.00313914 7.7937 0 7.7937 0C8.1371 0.000392398 8.47697 0.0701722 8.79272 0.205139C9.10848 0.340106 9.39376 0.537492 9.63135 0.785431C10.1011 1.26981 10.3916 1.93959 10.3916 2.67917Z" fill="white"/>
</svg>
