<svg width="12" height="12" viewBox="0 0 12 12" fill="none" xmlns="http://www.w3.org/2000/svg">
<g clip-path="url(#clip0_110_178)">
<path d="M10.5 2.25C10.6989 2.25 10.8897 2.32902 11.0303 2.46967C11.171 2.61032 11.25 2.80109 11.25 3V9C11.25 9.19891 11.171 9.38968 11.0303 9.53033C10.8897 9.67098 10.6989 9.75 10.5 9.75H1.5C1.30109 9.75 1.11032 9.67098 0.96967 9.53033C0.829018 9.38968 0.75 9.19891 0.75 9V3C0.75 2.80109 0.829018 2.61032 0.96967 2.46967C1.11032 2.32902 1.30109 2.25 1.5 2.25H10.5ZM1.5 1.5C1.10218 1.5 0.720644 1.65804 0.43934 1.93934C0.158035 2.22064 0 2.60218 0 3L0 9C0 9.39782 0.158035 9.77936 0.43934 10.0607C0.720644 10.342 1.10218 10.5 1.5 10.5H10.5C10.8978 10.5 11.2794 10.342 11.5607 10.0607C11.842 9.77936 12 9.39782 12 9V3C12 2.60218 11.842 2.22064 11.5607 1.93934C11.2794 1.65804 10.8978 1.5 10.5 1.5H1.5Z" fill="#333333"/>
<path d="M1.5 4.125C1.5 4.02554 1.53951 3.93016 1.60984 3.85984C1.68016 3.78951 1.77554 3.75 1.875 3.75H3.375C3.47446 3.75 3.56984 3.78951 3.64016 3.85984C3.71049 3.93016 3.75 4.02554 3.75 4.125V4.875C3.75 4.97446 3.71049 5.06984 3.64016 5.14016C3.56984 5.21049 3.47446 5.25 3.375 5.25H1.875C1.77554 5.25 1.68016 5.21049 1.60984 5.14016C1.53951 5.06984 1.5 4.97446 1.5 4.875V4.125ZM1.5 6.375C1.5 6.27554 1.53951 6.18016 1.60984 6.10983C1.68016 6.03951 1.77554 6 1.875 6H5.625C5.72446 6 5.81984 6.03951 5.89016 6.10983C5.96049 6.18016 6 6.27554 6 6.375C6 6.47446 5.96049 6.56984 5.89016 6.64017C5.81984 6.71049 5.72446 6.75 5.625 6.75H1.875C1.77554 6.75 1.68016 6.71049 1.60984 6.64017C1.53951 6.56984 1.5 6.47446 1.5 6.375ZM1.5 7.875C1.5 7.77554 1.53951 7.68016 1.60984 7.60983C1.68016 7.53951 1.77554 7.5 1.875 7.5H2.625C2.72446 7.5 2.81984 7.53951 2.89016 7.60983C2.96049 7.68016 3 7.77554 3 7.875C3 7.97446 2.96049 8.06984 2.89016 8.14017C2.81984 8.21049 2.72446 8.25 2.625 8.25H1.875C1.77554 8.25 1.68016 8.21049 1.60984 8.14017C1.53951 8.06984 1.5 7.97446 1.5 7.875ZM3.75 7.875C3.75 7.77554 3.78951 7.68016 3.85984 7.60983C3.93016 7.53951 4.02554 7.5 4.125 7.5H4.875C4.97446 7.5 5.06984 7.53951 5.14016 7.60983C5.21049 7.68016 5.25 7.77554 5.25 7.875C5.25 7.97446 5.21049 8.06984 5.14016 8.14017C5.06984 8.21049 4.97446 8.25 4.875 8.25H4.125C4.02554 8.25 3.93016 8.21049 3.85984 8.14017C3.78951 8.06984 3.75 7.97446 3.75 7.875ZM6 7.875C6 7.77554 6.03951 7.68016 6.10983 7.60983C6.18016 7.53951 6.27554 7.5 6.375 7.5H7.125C7.22446 7.5 7.31984 7.53951 7.39017 7.60983C7.46049 7.68016 7.5 7.77554 7.5 7.875C7.5 7.97446 7.46049 8.06984 7.39017 8.14017C7.31984 8.21049 7.22446 8.25 7.125 8.25H6.375C6.27554 8.25 6.18016 8.21049 6.10983 8.14017C6.03951 8.06984 6 7.97446 6 7.875ZM8.25 7.875C8.25 7.77554 8.28951 7.68016 8.35983 7.60983C8.43016 7.53951 8.52554 7.5 8.625 7.5H9.375C9.47446 7.5 9.56984 7.53951 9.64017 7.60983C9.71049 7.68016 9.75 7.77554 9.75 7.875C9.75 7.97446 9.71049 8.06984 9.64017 8.14017C9.56984 8.21049 9.47446 8.25 9.375 8.25H8.625C8.52554 8.25 8.43016 8.21049 8.35983 8.14017C8.28951 8.06984 8.25 7.97446 8.25 7.875Z" fill="#333333"/>
</g>
<defs>
<clipPath id="clip0_110_178">
<rect width="12" height="12" fill="white"/>
</clipPath>
</defs>
</svg>
